<mxfile host="app.diagrams.net" modified="2021-07-13T19:52:52.685Z" agent="5.0 (X11; Linux x86_64) AppleWebKit/537.36 (KHTML, like Gecko) Chrome/91.0.4472.124 Safari/537.36" etag="l9XFQ6rxI8SCl7DpFqKJ" version="14.8.6" type="github">
  <diagram name="Page-1" id="03018318-947c-dd8e-b7a3-06fadd420f32">
    <mxGraphModel dx="1421" dy="836" grid="1" gridSize="10" guides="1" tooltips="1" connect="1" arrows="1" fold="1" page="1" pageScale="1" pageWidth="1100" pageHeight="850" background="#ffffff" math="0" shadow="0">
      <root>
        <mxCell id="0" />
        <mxCell id="1" parent="0" />
        <mxCell id="kowcAc7RPNMd2BS8YPpF-13" value="" style="rounded=0;whiteSpace=wrap;html=1;align=center;verticalAlign=middle;labelBackgroundColor=#171b22;fillColor=#171b22;" parent="1" vertex="1">
          <mxGeometry x="10" y="62.5" width="1060" height="77.5" as="geometry" />
        </mxCell>
        <mxCell id="677b7b8949515195-1" value="" style="whiteSpace=wrap;html=1;rounded=0;shadow=0;labelBackgroundColor=#ffffff;strokeWidth=1;fontFamily=Verdana;fontSize=12;align=center;comic=1;fillColor=#0C1117;fontColor=#FFFFFF;gradientDirection=north;verticalAlign=middle;" parent="1" vertex="1">
          <mxGeometry x="10" y="60" width="1060" height="780" as="geometry" />
        </mxCell>
        <mxCell id="677b7b8949515195-2" value="Luckyseven" style="whiteSpace=wrap;html=1;rounded=0;shadow=0;labelBackgroundColor=none;strokeWidth=1;fontFamily=Verdana;fontSize=28;align=center;comic=1;fillColor=#171B22;fontColor=#FFFFFF;" parent="1" vertex="1">
          <mxGeometry x="20" y="80" width="290" height="50" as="geometry" />
        </mxCell>
        <mxCell id="677b7b8949515195-4" value="Log In" style="text;html=1;points=[];align=center;verticalAlign=middle;spacingTop=-4;fontSize=14;fontFamily=Verdana;fillColor=#d5e8d4;strokeColor=#82b366;" parent="1" vertex="1">
          <mxGeometry x="840" y="90" width="100" height="30" as="geometry" />
        </mxCell>
        <mxCell id="677b7b8949515195-9" value="" style="line;strokeWidth=1;html=1;rounded=0;shadow=0;labelBackgroundColor=none;fillColor=none;fontFamily=Verdana;fontSize=14;fontColor=#000000;align=center;comic=1;" parent="1" vertex="1">
          <mxGeometry x="10" y="140" width="1060" height="10" as="geometry" />
        </mxCell>
        <mxCell id="677b7b8949515195-10" value="" style="whiteSpace=wrap;html=1;rounded=0;shadow=0;labelBackgroundColor=none;strokeWidth=1;fontFamily=Verdana;fontSize=12;align=center;comic=1;fillColor=#171B22;" parent="1" vertex="1">
          <mxGeometry x="30" y="160" width="1040" height="50" as="geometry" />
        </mxCell>
        <mxCell id="677b7b8949515195-11" value="Result State" style="text;html=1;points=[];align=left;verticalAlign=top;spacingTop=-4;fontSize=14;fontFamily=Verdana;fontColor=#FFFFFF;" parent="1" vertex="1">
          <mxGeometry x="330" y="175" width="60" height="20" as="geometry" />
        </mxCell>
        <mxCell id="677b7b8949515195-12" value="Transactions" style="text;html=1;points=[];align=left;verticalAlign=top;spacingTop=-4;fontSize=14;fontFamily=Verdana;fontColor=#FFFFFF;" parent="1" vertex="1">
          <mxGeometry x="477" y="175" width="60" height="20" as="geometry" />
        </mxCell>
        <mxCell id="677b7b8949515195-13" value="Addresses" style="text;html=1;points=[];align=left;verticalAlign=top;spacingTop=-4;fontSize=14;fontFamily=Verdana;fontColor=#FFFFFF;" parent="1" vertex="1">
          <mxGeometry x="623" y="175" width="60" height="20" as="geometry" />
        </mxCell>
        <mxCell id="677b7b8949515195-14" value="Balances" style="text;html=1;points=[];align=left;verticalAlign=top;spacingTop=-4;fontSize=14;fontFamily=Verdana;fontColor=#FFFFFF;" parent="1" vertex="1">
          <mxGeometry x="770" y="175" width="60" height="20" as="geometry" />
        </mxCell>
        <mxCell id="677b7b8949515195-15" value="&lt;div style=&quot;text-align: justify&quot;&gt;&lt;span&gt;Lorem ipsum dolor sit amet, consectetur adipisicing elit, sed do eiusmod tempor incididunt ut labore et dolore magna aliqua. Ut enim ad minim veniam, quis nostrud exercitation ullamco laboris nisi ut aliquip ex ea commodo consequat. Duis aute irure dolor in reprehenderit in voluptate velit esse cillum dolore eu fugiat nulla pariatur. Excepteur sint occaecat cupidatat non proident, sunt in culpa qui officia deserunt mollit anim id est laborum.&lt;/span&gt;&lt;/div&gt;&lt;div style=&quot;text-align: justify&quot;&gt;&lt;span&gt;Sed ut perspiciatis unde omnis iste natus error sit voluptatem accusantium doloremque laudantium, totam rem aperiam, eaque ipsa quae ab illo inventore veritatis et quasi architecto beatae vitae dicta sunt explicabo. Nemo enim ipsam voluptatem quia voluptas sit aspernatur aut odit aut fugit, sed quia consequuntur magni dolores eos qui ratione voluptatem sequi nesciunt.&amp;nbsp;&lt;/span&gt;&lt;/div&gt;" style="whiteSpace=wrap;html=1;rounded=0;shadow=0;labelBackgroundColor=none;strokeWidth=1;fillColor=none;fontFamily=Verdana;fontSize=12;align=center;verticalAlign=top;spacing=10;comic=1;fontColor=#FFFFFF;" parent="1" vertex="1">
          <mxGeometry x="40" y="640" width="790" height="180" as="geometry" />
        </mxCell>
        <mxCell id="677b7b8949515195-16" value="" style="verticalLabelPosition=bottom;shadow=0;dashed=0;align=center;html=1;verticalAlign=top;strokeWidth=1;shape=mxgraph.mockup.graphics.simpleIcon;strokeColor=#999999;rounded=0;labelBackgroundColor=none;fontFamily=Verdana;fontSize=14;fontColor=#000000;comic=1;" parent="1" vertex="1">
          <mxGeometry x="40" y="230" width="790" height="400" as="geometry" />
        </mxCell>
        <mxCell id="677b7b8949515195-25" value="" style="whiteSpace=wrap;html=1;rounded=0;shadow=0;labelBackgroundColor=none;strokeWidth=1;fontFamily=Verdana;fontSize=12;align=center;comic=1;fontColor=#FFFFFF;fillColor=#171B22;" parent="1" vertex="1">
          <mxGeometry x="850" y="230" width="190" height="400" as="geometry" />
        </mxCell>
        <mxCell id="677b7b8949515195-26" value="" style="whiteSpace=wrap;html=1;rounded=0;shadow=0;labelBackgroundColor=none;strokeWidth=1;fontFamily=Verdana;fontSize=12;align=center;comic=1;fillColor=#171B22;" parent="1" vertex="1">
          <mxGeometry x="850" y="640" width="190" height="180" as="geometry" />
        </mxCell>
        <mxCell id="677b7b8949515195-42" value="External Links" style="text;html=1;points=[];align=left;verticalAlign=top;spacingTop=-4;fontSize=14;fontFamily=Verdana;fontColor=#FFFFFF;" parent="1" vertex="1">
          <mxGeometry x="860" y="653" width="170" height="20" as="geometry" />
        </mxCell>
        <mxCell id="677b7b8949515195-44" value="Feature 1" style="text;html=1;points=[];align=left;verticalAlign=top;spacingTop=-4;fontSize=14;fontFamily=Verdana;fontColor=#FFFFFF;" parent="1" vertex="1">
          <mxGeometry x="860" y="250" width="170" height="20" as="geometry" />
        </mxCell>
        <mxCell id="677b7b8949515195-45" value="Feature 2" style="text;html=1;points=[];align=left;verticalAlign=top;spacingTop=-4;fontSize=14;fontFamily=Verdana;fontColor=#FFFFFF;" parent="1" vertex="1">
          <mxGeometry x="860" y="285" width="170" height="20" as="geometry" />
        </mxCell>
        <mxCell id="677b7b8949515195-46" value="Feature 3" style="text;html=1;points=[];align=left;verticalAlign=top;spacingTop=-4;fontSize=14;fontFamily=Verdana;fontColor=#FFFFFF;" parent="1" vertex="1">
          <mxGeometry x="860" y="320" width="170" height="20" as="geometry" />
        </mxCell>
        <mxCell id="677b7b8949515195-47" value="Feature 4" style="text;html=1;points=[];align=left;verticalAlign=top;spacingTop=-4;fontSize=14;fontFamily=Verdana;fontColor=#FFFFFF;" parent="1" vertex="1">
          <mxGeometry x="860" y="355" width="170" height="20" as="geometry" />
        </mxCell>
        <mxCell id="677b7b8949515195-48" value="Feature 5" style="text;html=1;points=[];align=left;verticalAlign=top;spacingTop=-4;fontSize=14;fontFamily=Verdana;fontColor=#FFFFFF;" parent="1" vertex="1">
          <mxGeometry x="860" y="390" width="170" height="20" as="geometry" />
        </mxCell>
        <mxCell id="677b7b8949515195-49" value="Feature 6" style="text;html=1;points=[];align=left;verticalAlign=top;spacingTop=-4;fontSize=14;fontFamily=Verdana;fontColor=#FFFFFF;" parent="1" vertex="1">
          <mxGeometry x="860" y="425" width="170" height="20" as="geometry" />
        </mxCell>
        <mxCell id="kowcAc7RPNMd2BS8YPpF-7" value="" style="shape=image;verticalLabelPosition=bottom;labelBackgroundColor=#ffffff;verticalAlign=top;aspect=fixed;imageAspect=0;image=data:image/jpeg,/9j/2wCEAAgGBgcGBQgHBwcJCQgKDBQNDAsLDBkSEw8UHRofHh0aHBwgJC4nICIsIxwcKDcpLDAxNDQ0Hyc5PTgyPC4zNDIBCQkJDAsMGA0NGDIhHCEyMjIyMjIyMjIyMjIyMjIyMjIyMjIyMjIyMjIyMjIyMjIyMjIyMjIyMjIyMjIyMjIyMv/AABEIAMgAyAMBIgACEQEDEQH/xAGiAAABBQEBAQEBAQAAAAAAAAAAAQIDBAUGBwgJCgsQAAIBAwMCBAMFBQQEAAABfQECAwAEEQUSITFBBhNRYQcicRQygZGhCCNCscEVUtHwJDNicoIJChYXGBkaJSYnKCkqNDU2Nzg5OkNERUZHSElKU1RVVldYWVpjZGVmZ2hpanN0dXZ3eHl6g4SFhoeIiYqSk5SVlpeYmZqio6Slpqeoqaqys7S1tre4ubrCw8TFxsfIycrS09TV1tfY2drh4uPk5ebn6Onq8fLz9PX29/j5+gEAAwEBAQEBAQEBAQAAAAAAAAECAwQFBgcICQoLEQACAQIEBAMEBwUEBAABAncAAQIDEQQFITEGEkFRB2FxEyIygQgUQpGhscEJIzNS8BVictEKFiQ04SXxFxgZGiYnKCkqNTY3ODk6Q0RFRkdISUpTVFVWV1hZWmNkZWZnaGlqc3R1dnd4eXqCg4SFhoeIiYqSk5SVlpeYmZqio6Slpqeoqaqys7S1tre4ubrCw8TFxsfIycrS09TV1tfY2dri4+Tl5ufo6ery8/T19vf4+fr/2gAMAwEAAhEDEQA/APn+iivWPhT8KdL8faJfX19f3ls9vc+SqwbcEbQcnIPrQB5PRX0t/wAM2+Hv+g1qn5R//E0f8M2+Hv8AoNap+Uf/AMTQB800V9Lf8M2+Hv8AoNap+Uf/AMTR/wAM2+Hv+g1qn5R//E0AfNNFfS3/AAzb4e/6DWqflH/8TR/wzb4e/wCg1qn5R/8AxNAHzTRX0t/wzb4e/wCg1qn5R/8AxNH/AAzb4e/6DWqflH/8TQB800V9Lf8ADNvh7/oNap+Uf/xNH/DNvh7/AKDWqflH/wDE0AfNNX9G086pq1vaDO12+cjso5P6V9D/APDNvh7/AKDWqflH/wDE1z+pfD3RvAuteTp95c3U7w/vGn2/ICeAMAemfyoOPH4j6vQlPr09Tmv+EI0T/nhJ/wB/TR/whGif88JP+/proqKD5D69if8An4/vOd/4QjRP+eEn/f01zvizR9I0a0iS2icXUrcZkJ2qOpx+n516Kis7qiKWZjgAdSa6u8+Aema1JHeajrF+ly0aho4tmxDjkDI6ZzQenlU8RiK15TfLHfX7j5gor6W/4Zt8Pf8AQa1T8o//AImj/hm3w9/0GtU/KP8A+JoPqD5por6W/wCGbfD3/Qa1T8o//iaP+GbfD3/Qa1T8o/8A4mgD5por6W/4Zt8Pf9BrVPyj/wDia4H4rfCnS/AOiWN9Y395cvcXPkss+3AG0nIwB6UAeT0UUUAFfS37Nv8AyKGr/wDX/wD+01r5pr6W/Zt/5FDV/wDr/wD/AGmtAHtNFFFABRRVLVdSTSrBruSNpFUgbVPPNTOcYRc5bIC7RXJf8J5a/wDPlN/30KP+E8tf+fKb/voVw/2rg/5/z/yL5JdjraK5L/hPLX/nym/76FH/AAnlr/z5Tf8AfQo/tXB/z/n/AJByS7HW0VyX/CeWv/PlN/30KP8AhPLX/nym/wC+hR/auD/n/P8AyDkl2OpnnjtreSeVtscal2PoAMmvAtUv5NU1S5vpc7pnLY9B2H4DArv/ABH4q/tfRpbG1heFpSA7uc/L1I49eP1rhf7Kk/56r+VH9q4P+f8AM8HN8Niq8owpwvFa9NzPorQ/sqT/AJ6r+VH9lSf89V/Kj+1cH/P+Z439k43/AJ9v8P8AM6H4eaL/AGhrJv5VzBZ8jPeQ9Py6/lXrdefeHvEVjoOjxWSWkrOMtI4IG5j1P9PwrU/4Ty1/58pv++hR/auD/n/P/I+py/BSw1BRa1er9TraK5L/AITy1/58pv8AvoV0enXq6jYRXaIUWQEhT1HOK2oY2hXly0pXZ2uLW5aooorqJCvFv2kv+RQ0j/r/AP8A2m1e014t+0l/yKGkf9f/AP7TagD5pooooAK+lv2bf+RQ1f8A6/8A/wBprXzTX0t+zb/yKGr/APX/AP8AtNaAPaaKKKACsDxj/wAi7L/vp/Ot+sDxj/yLsv8Avp/OuTH/AO61PRlR3R5vRRRXwB1BRRRQAUUUUAFFFFABRRRQAUUUUAFeo+GAR4cs8jHyn+ZrzaxtHvr+C1T70rhc+g7n8q9ciiSCFIoxtRFCqPQCvouH6UuedXpa36mNV9B9FFFfUGIV4t+0l/yKGkf9f/8A7Tavaa8W/aS/5FDSP+v/AP8AabUAfNNFFFABX0t+zb/yKGr/APX/AP8AtNa+aa+lv2bf+RQ1f/r/AP8A2mtAHtNFFFABWB4x/wCRdl/30/nW/TZIo5k2SIrr6MMiscRS9rSlTTtdWGnZ3PGqK9f+wWf/AD6Qf9+x/hSHT7IjBs7cj/rkP8K+d/1en/z8X3G3tfI8hor13+zLD/nxtv8Av0v+FH9mWH/Pjbf9+l/wpf6v1P519we1XY8ior1W/g0vT7Ce8msrYRwoXP7pecDp0rwye8muLiWYuVMjFiqnAGTnAHYUf6v1P519x5+OzaGEsnG7ZvUVzvnS/wDPV/8Avo0+JriaVIo2kaR2CqoY5JPQUf6v1P519xwf6yU/+fb+836K9O0bw9aadpNvbTQQzzKuZJHQMWY8nk9qfqkem6Zps109janYvyjyl5bsOnrUzyGUIuUqisvI92FZyim1Znl1FKzF3ZjjJOTgYoVSzBVBJJwAO9eCbnX+BtP3zT6g44QeXH9T1P5Y/Ou3qjpFgNN0qC143KuXPqx5P61er73AYf6vh4w69fU5ZO7uFFFFdhIV4t+0l/yKGkf9f/8A7Tavaa8W/aS/5FDSP+v/AP8AabUAfNNFFFABX0t+zb/yKGr/APX/AP8AtNa+aa+lv2bf+RQ1f/r/AP8A2mtAHtNFFFABRRRQAUUUUAFFFBIAyeBQBwfxM1byNPg0uNvnuG8yQD+4vQfif/Qa8vrX8TaqdZ8QXV2GzFu2Rf7g4H59fxrIoPhswxHt8RKa22Xogrtfhzon23VX1KZcw2nCZ7yH/Ac/iK42KKSeZIYlLySMFVR1JPAFe76BpMeiaNb2KYLIuZGH8Tnqf89qDqyjC+2r872jr8+hpVwPjTVPtF6thG37uD5nx3c/4D+ZrsdVv00zTZrpsZQfKPVj0FeTySPNK8sjFndizE9ya8DPcXyU1Qju9/T/AIJ9pSjd3G1veEtP+260kjDMVuPMb6/wj8+fwrBr0jwjp/2LRVlYYluD5h+n8P6c/jXj5Thvb4lX2jq/69TSpKyN+iiivtzmCiiigArxb9pL/kUNI/6//wD2m1e014t+0l/yKGkf9f8A/wC02oA+aaKKKACvpb9m3/kUNX/6/wD/ANprXzTX0t+zb/yKGr/9f/8A7TWgD2miiigAooooAKKKKACuc8b6t/ZXhufY2J7j9zH689T+Wf0ro68i+Imrfb9f+yRtmGzXZx0Lnlv6D8KDz8zxHsMO2t3ojkKKKfDDJcTxwxKXkkYKqjuTwBQfFJXO0+HGi/bNUfU5lzDa8R57yH/AfzFeq1naFpUei6Pb2MeCUXLsP4nPU/nUmragmmaZNdNglRhB6segqZzjCLnLZH3OX4X6vQUOvX1ON8aap9pvlsY2/dQcvju5/wAB/M1y9OkkeWRpJGLO5LMT3Jptfn+KxEsRWlVl1PXirKxd0mxOpapBajO12+c+ijk/pXrKqEUKoAUDAA7Vx/gbT9sU+oOvLfu4/oOp/PH5V2NfU5JhvZYf2j3l+XQwqO7CiiivZMwooooAK8W/aS/5FDSP+v8A/wDabV7TXi37SX/IoaR/1/8A/tNqAPmmiiigAr6W/Zt/5FDV/wDr/wD/AGmtfNNfS37Nv/Ioav8A9f8A/wC01oA9pooooAKKKKACiiigCjrGoppOkXV8+MQoSAe7dAPxOBXgksrzzPNKxaSRizMe5PJNeifE7VsLbaTG3X99Lj8lH8z+Arzig+TzrEe0r+zW0fzCu4+G+ifa9Sk1SZcxW3yx57yEf0H8xXFwQyXM8cESlpJGCKo7knAr3jRNLj0bR7exjwfLX52H8THkn86CMnwvtq3tJbR/PoaFef8AjPVPtWoLZRtmK35bHdz/AID+tdlrGorpemTXTY3AYQHux6CvKHdpJGkdizsSWJ7k18/nuL5YKhHd6v0PtKUbu42nxRPNMkUY3O7BVHqTTK6TwZp/2rVWunXMdsuR/vHgf1P5V85hqDr1o0l1NpOyud1p9mlhYQWqdI0C59T3P51Zoor9BjFRiorZHIFFFFUAUUUUAFeLftJf8ihpH/X/AP8AtNq9prxb9pL/AJFDSP8Ar/8A/abUAfNNFFFABX0t+zb/AMihq/8A1/8A/tNa+aa+lv2bf+RQ1f8A6/8A/wBprQB7TRRRQAUUUUAFNkkSKNpJGCogLMT2Ap1cn8QdW/s/w81sjYmvD5Y/3P4j+WB+NBjiKyo0pVH0PL9b1J9X1m6vmziV/kB7KOFH5AVn0VJbwSXVxHbwqWlkYIijuScCg+ClKVSTk9Wztvhvon2rUJNVmT91b/JFkdXI5P4D+Yr1KqGi6XHo+kW9jHg+WvzN/ebqT+dGs6iul6XNcnG8DbGPVj0/z7VFScacXOWyPt8Bhfq9FQ69fU43xnqf2rUVso2zFb/ex3c9fy6fnXM0ru0js7sWZiSSe5pK/P8AE15YirKrLqevFWVgr0/wzp/9n6JCrDEsv71/qeg/LFcHoGn/ANpazBARmMHfJ/uj/HgfjXqle7kGG1lXfov1Mqr6BRRRX0xiFFFFABRRRQAV4t+0l/yKGkf9f/8A7Tavaa8W/aS/5FDSP+v/AP8AabUAfNNFFFABX0t+zb/yKGr/APX/AP8AtNa+aa+lv2bf+RQ1f/r/AP8A2mtAHtNFFFABRRRQAV4z461b+1PEkqI2YbX9yn1H3j+fH4CvUfEeqjRtBurzI8xV2xj1c8D/AB/CvCSSxJJJJ5JPeg+fz3EWjGiuur/QSu7+G2ifaL6TVpl/dwZSLPdyOT+AP61w0UZllSNSAzsFBY4HPqe1e3aPPo2j6Tb2MWp2RES4ZvPX5m6k9e5zQeflFCNSt7Se0fz6G5XnvjLVPtepCzjbMVtw2O7nr+XT866nU/EVha6fNLb3lvNMFwiRyqxJPTgHpXmTMzuzuSzMcknua+ez3F8sFQju9X6H2lG0veQlFFPiQSzRxl1QOwXc5wBnuTXy6Tk7I6G0ldndeCNP8mwlvXHzzttT/dH+Jz+VdVWZbalo9raxW8epWYSNQq/v16D8al/trSv+gnZ/9/1/xr9BwlBYejGmun59ThlWg3e6L1FUf7a0r/oJ2f8A3/X/ABpw1XTiMi/tSP8Arsv+NdAvaQ7ouUVU/tTT/wDn/tf+/wAv+NWIpop4xJDIkiHoyMCD+IoGpxezH0UUUFBXi37SX/IoaR/1/wD/ALTavaa8W/aS/wCRQ0j/AK//AP2m1AHzTRRRQAV9Lfs2/wDIoav/ANf/AP7TWvmmvpb9m3/kUNX/AOv/AP8Aaa0Ae00UUUAFFFRXNxHaWstzM22KJC7H0AGTQJtJXZ5t8TdW828t9Kjb5YR5so/2j0H4D/0KuBq1qN7JqWo3F7L9+Zy5Hp6D8BxVWg+Exdd160qnf8gooqa2hM86p26n6VFSpGnBzlsjGnTlUmoR3ZpabB5cPmEfM/T6VdoAAAAGAKK/P8TXlXqyqy6n6PhcPHD0Y0o9ArP1SbbGsQPLcn6VoVgXU3n3DvnjOB9K9DJcN7XEc72jr8+n+fyPMz3Fexw3It5afLr/AJfMhooor7M+ICiiigAr2bwB/wAidaf70n/oZrxmvZvAH/InWn+9J/6GaD2cj/3l+j/NHTUUUUH1gV4t+0l/yKGkf9f/AP7Tavaa8W/aS/5FDSP+v/8A9ptQB800UUUAFfS37Nv/ACKGr/8AX/8A+01r5pr6W/Zt/wCRQ1f/AK//AP2mtAHtNFFFABXPeOCR4N1AgkfKg4/31roaoazpiazpM+nySNGk2MsoyRgg/wBKDHEQc6M4R3af5HgVFen/APCrrH/oI3H/AHwtH/CrrH/oI3H/AHwtB8n/AGPi/wCX8UeYVsabB5cPmEfM/wDKuo1nwFp2kae101/O7ZCohUDcT2/nWIAAMDpXzue4vlisPHrq/Toezk+V1KNV1qy22Ciiivlz6Uq383lWrYPzN8orEr0iw8CR6zp0N3c3csJfJVFUHjsefWp/+FXWP/QRuP8Avha+2yjDexwyb3lr/kfK5tg8VisReC91aLVHmFFen/8ACrrH/oI3H/fC0f8ACrrH/oI3H/fC16h5f9j4v+X8UeYUV6f/AMKusf8AoI3H/fC0f8Kusf8AoI3H/fC0B/Y+L/l/FHmFezeAP+ROtP8Aek/9DNZH/CrrH/oI3H/fC11mh6THoelRWEUrSpGWIZhgnJJ/rQelleAr4es51FZW7+ho0UUUH0AV4t+0l/yKGkf9f/8A7Tavaa8W/aS/5FDSP+v/AP8AabUAfNNFFFABX0t+zb/yKGr/APX/AP8AtNa+aa9Y+FPxW0vwDol9Y31heXL3Fz5ytBtwBtAwckelAH1PRXi3/DSXh7/oC6p+cf8A8VR/w0l4e/6AuqfnH/8AFUAe00V4t/w0l4e/6AuqfnH/APFUf8NJeHv+gLqn5x//ABVAHtNFeLf8NJeHv+gLqn5x/wDxVX9J+Oem+JLmSw03SL+Ocxswll2bI/c4PqRUVKkacHOWyBK5q+MNU+26p9mjbMNt8v1bv/h+Fc7SkliSSSTySaSvz/EV5V6sqkup1xVlYKtadZvqGoQWqZzIwBI7DufyzVWqJ+JWjeBNY239ndXVw8OVEG3CAnvkjk4rTA4f6xXjT6dfQU3ZXPc440iiSNBtRAFUegFOrxb/AIaS8Pf9AXVPzj/+Ko/4aS8Pf9AXVPzj/wDiq+/Sscp7TRXi3/DSXh7/AKAuqfnH/wDFUf8ADSXh7/oC6p+cf/xVAHtNFeLf8NJeHv8AoC6p+cf/AMVR/wANJeHv+gLqn5x//FUAe00V4t/w0l4e/wCgLqn5x/8AxVH/AA0l4e/6AuqfnH/8VQB7TRXi3/DSXh7/AKAuqfnH/wDFUf8ADSXh7/oC6p+cf/xVAHtNeLftJf8AIoaR/wBf/wD7Taj/AIaS8Pf9AXVPzj/+Krgfit8VtL8faJY2NjYXls9vc+czT7cEbSMDBPrQB5PRRRQAUUUUAFFFFABRRRQAV6B4F8Q+H/DumytdzyC9nb59sRO1R0GfzP4+1ef0Vz4nDRxNP2c20vIcXZ3Pa/8AhZHhv/n5m/78tR/wsjw3/wA/M3/flq8Uorzf7Bwvd/f/AMAv2sj2v/hZHhv/AJ+Zv+/LV5Lr2qPrOuXd+2cSudgPZRwo/ICs6iuvCZbRwsnKne77kym5bhRRRXeSFFFFABRRRQAUUUUAFFFFABRRRQAUUUUAf//Z;" parent="1" vertex="1">
          <mxGeometry x="260" y="87.5" width="35" height="35" as="geometry" />
        </mxCell>
        <mxCell id="kowcAc7RPNMd2BS8YPpF-8" value="Sign Up" style="text;html=1;points=[];align=center;verticalAlign=middle;spacingTop=-4;fontSize=14;fontFamily=Verdana;fillColor=#d5e8d4;strokeColor=#82b366;" parent="1" vertex="1">
          <mxGeometry x="960" y="90" width="100" height="30" as="geometry" />
        </mxCell>
      </root>
    </mxGraphModel>
  </diagram>
</mxfile>
